# xmcd CD database file
#
# Track frame offsets:
#	150
#	40105
#	63629
#	85573
#	149047
#	182982
#	222327
#	250645
#	274310
#
# Disc length: 4109 seconds
#
# Revision: 0
# Processed by: cddbd v1.4PL0 Copyright (c) Steve Scherf et al.
# Submitted via: CDex 1.50
#
DISCID=88100b09
DTITLE=Smutny Karel - Live at the psychedelic cottage
DYEAR=2000
DGENRE=Blues
TTITLE0=Not fade away
TTITLE1=Boogie
TTITLE2=Black magic woman
TTITLE3=(i) Trunkin (ii) Proud Mary
TTITLE4=Cowboy Song
TTITLE5=In memory of Elizabeth Reed
TTITLE6=Improvisation
TTITLE7=Turn on your love light
TTITLE8=Prechadzka po Vysnych Hagoch
EXTD=YEAR: 2000
EXTT0=
EXTT1=
EXTT2=
EXTT3=
EXTT4=
EXTT5=
EXTT6=
EXTT7=
EXTT8=
PLAYORDER=
